<?xml version="1.0" encoding="UTF-8" standalone="no"?>
<svg
   sodipodi:docname="Constellations.svg"
   inkscape:version="1.2.2 (732a01da63, 2022-12-09)"
   id="svg8"
   version="1.1"
   viewBox="0 0 254.84843 254.84851"
   height="254.84851mm"
   width="254.84843mm"
   xmlns:inkscape="http://www.inkscape.org/namespaces/inkscape"
   xmlns:sodipodi="http://sodipodi.sourceforge.net/DTD/sodipodi-0.dtd"
   xmlns="http://www.w3.org/2000/svg"
   xmlns:svg="http://www.w3.org/2000/svg"
   xmlns:rdf="http://www.w3.org/1999/02/22-rdf-syntax-ns#"
   xmlns:cc="http://creativecommons.org/ns#"
   xmlns:dc="http://purl.org/dc/elements/1.1/">
  <defs
     id="defs2" />
  <sodipodi:namedview
     inkscape:snap-object-midpoints="true"
     inkscape:snap-nodes="true"
     inkscape:bbox-nodes="true"
     inkscape:snap-bbox-midpoints="true"
     inkscape:snap-bbox="false"
     inkscape:window-maximized="1"
     inkscape:window-y="-8"
     inkscape:window-x="1912"
     inkscape:window-height="1017"
     inkscape:window-width="1920"
     inkscape:snap-global="true"
     showgrid="false"
     inkscape:document-rotation="0"
     inkscape:current-layer="g10"
     inkscape:document-units="mm"
     inkscape:cy="-1885.7143"
     inkscape:cx="-2675.7143"
     inkscape:zoom="0.7"
     inkscape:pageshadow="2"
     inkscape:pageopacity="0.0"
     borderopacity="1.0"
     bordercolor="#666666"
     pagecolor="#ffffff"
     id="base"
     inkscape:showpageshadow="2"
     inkscape:pagecheckerboard="0"
     inkscape:deskcolor="#d1d1d1" />
  <metadata
     id="metadata5">
    <rdf:RDF>
      <cc:Work
         rdf:about="">
        <dc:format>image/svg+xml</dc:format>
        <dc:type
           rdf:resource="http://purl.org/dc/dcmitype/StillImage" />
        <dc:title />
      </cc:Work>
    </rdf:RDF>
  </metadata>
  <g
     id="layer1"
     inkscape:groupmode="layer"
     inkscape:label="Layer 1"
     transform="translate(360.25758,676.24565)">
    <g
       transform="matrix(0.21856008,0,0,-0.21856008,-96.385369,-34.956635)"
       id="g10">
      <g
         id="g18" />
      <rect
         sodipodi:insensitive="true"
         transform="scale(1,-1)"
         y="-5962.8882"
         x="3484.4756"
         height="3800.5239"
         width="3775.2295"
         id="rect27662"
         style="fill:#000000;stroke:none;stroke-width:3.63172;stroke-linejoin:round;stroke-miterlimit:10;stroke-dasharray:none;paint-order:markers fill stroke" />
      <g
         id="g2906">
        <path
           style="fill:none;fill-rule:evenodd;stroke:#000000;stroke-width:1.37262;stroke-linecap:round;stroke-linejoin:round"
           d="m -2005.3719,2097.4692 c 0,223.7401 -181.6088,405.3489 -405.3489,405.3489 -223.74,0 -405.3489,-181.6088 -405.3489,-405.3489 0,-223.7416 181.6089,-405.3488 405.3489,-405.3488 223.7401,0 405.3489,181.6072 405.3489,405.3488 z"
           id="path10711" />
        <path
           style="fill:none;fill-rule:evenodd;stroke:#000000;stroke-width:1.37262;stroke-linecap:round;stroke-linejoin:round"
           d="m -1961.9139,2097.4692 c 0,247.7272 -201.0781,448.8069 -448.8069,448.8069 -247.7272,0 -448.8069,-201.0797 -448.8069,-448.8069 0,-247.7288 201.0797,-448.8069 448.8069,-448.8069 247.7288,0 448.8069,201.0781 448.8069,448.8069 z"
           id="path11501" />
        <path
           style="fill:none;fill-rule:evenodd;stroke:#000000;stroke-width:1.37262;stroke-linecap:round;stroke-linejoin:round"
           d="m -2410.7208,2539.1063 16.8125,-29.12"
           id="path11503" />
        <path
           style="fill:none;fill-rule:evenodd;stroke:#000000;stroke-width:1.37262;stroke-linecap:round;stroke-linejoin:round"
           d="m -2393.9083,2509.9863 -16.8125,6.1191"
           id="path11505" />
        <path
           style="fill:none;fill-rule:evenodd;stroke:#000000;stroke-width:1.37262;stroke-linecap:round;stroke-linejoin:round"
           d="m -2410.7208,2539.1063 -16.8125,-29.12"
           id="path11507" />
        <path
           style="fill:none;fill-rule:evenodd;stroke:#000000;stroke-width:1.37262;stroke-linecap:round;stroke-linejoin:round"
           d="m -2427.5333,2509.9863 16.8125,6.1191"
           id="path11509" />
        <path
           style="fill:none;fill-rule:evenodd;stroke:#000000;stroke-width:1.37262;stroke-linecap:round;stroke-linejoin:round"
           d="m -2883.8554,1757.0766 c 0.6876,4.563 1.0427,9.2326 1.0427,13.9861 0,39.4825 -24.5795,73.2624 -59.2601,86.8596"
           id="path11733" />
        <path
           style="fill:none;fill-rule:evenodd;stroke:#000000;stroke-width:1.37262;stroke-linecap:round;stroke-linejoin:round"
           d="m -2883.8312,1757.1056 c 36.8128,-51.0604 81.6848,-95.934 132.7468,-132.7468"
           id="path11735" />
        <path
           style="fill:none;fill-rule:evenodd;stroke:#000000;stroke-width:1.37262;stroke-linecap:round;stroke-linejoin:round"
           d="m -2650.2661,1566.1157 c -13.5972,34.6805 -47.3771,59.2616 -86.8596,59.2616 -4.7535,0 -9.4247,-0.3567 -13.9878,-1.0443"
           id="path11737" />
        <path
           style="fill:none;fill-rule:evenodd;stroke:#000000;stroke-width:1.37262;stroke-linecap:round;stroke-linejoin:round"
           d="m -2650.3113,1566.0285 c 56.2788,-25.4334 117.3063,-42.1877 181.3764,-48.5505"
           id="path11739" />
        <path
           style="fill:none;fill-rule:evenodd;stroke:#000000;stroke-width:1.37262;stroke-linecap:round;stroke-linejoin:round"
           d="m -2352.5147,1517.5087 c -15.957,12.7691 -36.1962,20.4086 -58.2061,20.4086 -22.0099,0 -42.2474,-7.6395 -58.2044,-20.4086"
           id="path11741" />
        <path
           style="fill:none;fill-rule:evenodd;stroke:#000000;stroke-width:1.37262;stroke-linecap:round;stroke-linejoin:round"
           d="m -2352.5051,1517.478 c 64.0734,6.3644 125.1073,23.1203 181.3877,48.5569"
           id="path11743" />
        <path
           style="fill:none;fill-rule:evenodd;stroke:#000000;stroke-width:1.37262;stroke-linecap:round;stroke-linejoin:round"
           d="m -2070.3281,1624.333 c -4.5631,0.6876 -9.2343,1.0443 -13.9878,1.0443 -39.4809,0 -73.2608,-24.5811 -86.8596,-59.2616"
           id="path11745" />
        <path
           style="fill:none;fill-rule:evenodd;stroke:#000000;stroke-width:1.37262;stroke-linecap:round;stroke-linejoin:round"
           d="m -2070.3588,1624.3572 c 51.0621,36.8144 95.934,81.6864 132.7484,132.7468"
           id="path11747" />
        <path
           style="fill:none;fill-rule:evenodd;stroke:#000000;stroke-width:1.37262;stroke-linecap:round;stroke-linejoin:round"
           d="m -1879.3672,1857.9223 c -34.6822,-13.5972 -59.2617,-47.3771 -59.2617,-86.8579 0,-4.7552 0.3567,-9.4248 1.0443,-13.9878"
           id="path11749" />
        <path
           style="fill:none;fill-rule:evenodd;stroke:#000000;stroke-width:1.37262;stroke-linecap:round;stroke-linejoin:round"
           d="m -1879.28,1857.8787 c 25.4333,56.2772 42.1861,117.3063 48.5505,181.3748"
           id="path11751" />
        <path
           style="fill:none;fill-rule:evenodd;stroke:#000000;stroke-width:1.37262;stroke-linecap:round;stroke-linejoin:round"
           d="m -1830.7602,2155.6737 c -12.7691,-15.957 -20.4087,-36.1946 -20.4087,-58.2045 0,-22.0114 7.6396,-42.249 20.4087,-58.206"
           id="path11753" />
        <path
           style="fill:none;fill-rule:evenodd;stroke:#000000;stroke-width:1.37262;stroke-linecap:round;stroke-linejoin:round"
           d="m -1830.7295,2155.685 c -6.3644,64.0733 -23.1204,125.1056 -48.557,181.3877"
           id="path11755" />
        <path
           style="fill:none;fill-rule:evenodd;stroke:#000000;stroke-width:1.37262;stroke-linecap:round;stroke-linejoin:round"
           d="m -1937.5846,2437.8619 c -0.6876,-4.5631 -1.0443,-9.2343 -1.0443,-13.9878 0,-39.4825 24.5795,-73.2624 59.2617,-86.8595"
           id="path11757" />
        <path
           style="fill:none;fill-rule:evenodd;stroke:#000000;stroke-width:1.37262;stroke-linecap:round;stroke-linejoin:round"
           d="m -1937.6104,2437.8312 c -36.8128,51.0621 -81.6847,95.9341 -132.7468,132.7468"
           id="path11759" />
        <path
           style="fill:none;fill-rule:evenodd;stroke:#000000;stroke-width:1.37262;stroke-linecap:round;stroke-linejoin:round"
           d="m -2171.1755,2628.8212 c 13.5988,-34.6805 47.3787,-59.2601 86.8596,-59.2601 4.7535,0 9.4247,0.3551 13.9878,1.0428"
           id="path11761" />
        <path
           style="fill:none;fill-rule:evenodd;stroke:#000000;stroke-width:1.37262;stroke-linecap:round;stroke-linejoin:round"
           d="m -2171.1303,2628.9084 c -56.2772,25.4338 -117.3063,42.1874 -181.3748,48.551"
           id="path11763" />
        <path
           style="fill:none;fill-rule:evenodd;stroke:#000000;stroke-width:1.37262;stroke-linecap:round;stroke-linejoin:round"
           d="m -2468.9268,2677.4287 c 15.9586,-12.7695 36.1961,-20.4084 58.206,-20.4084 22.0099,0 42.2491,7.6389 58.2061,20.4084"
           id="path11765" />
        <path
           style="fill:none;fill-rule:evenodd;stroke:#000000;stroke-width:1.37262;stroke-linecap:round;stroke-linejoin:round"
           d="m -2468.9365,2677.4592 c -64.0733,-6.3641 -125.1073,-23.1197 -181.3877,-48.5557"
           id="path11767" />
        <path
           style="fill:none;fill-rule:evenodd;stroke:#000000;stroke-width:1.37262;stroke-linecap:round;stroke-linejoin:round"
           d="m -2751.1135,2570.6039 c 4.5631,-0.6877 9.2343,-1.0444 13.9878,-1.0444 39.4825,0 73.2608,24.5812 86.8596,59.2617"
           id="path11769" />
        <path
           style="fill:none;fill-rule:evenodd;stroke:#000000;stroke-width:1.37262;stroke-linecap:round;stroke-linejoin:round"
           d="m -2751.0828,2570.5796 c -51.062,-36.8127 -95.934,-81.6847 -132.7468,-132.7468"
           id="path11771" />
        <path
           style="fill:none;fill-rule:evenodd;stroke:#000000;stroke-width:1.37262;stroke-linecap:round;stroke-linejoin:round"
           d="m -2942.0728,2337.0146 c 34.6806,13.5971 59.2601,47.377 59.2601,86.8595 0,4.7535 -0.3551,9.4247 -1.0427,13.9878"
           id="path11773" />
        <path
           style="fill:none;fill-rule:evenodd;stroke:#000000;stroke-width:1.37262;stroke-linecap:round;stroke-linejoin:round"
           d="m -2942.1615,2337.0581 c -25.4334,-56.2772 -42.1861,-117.3063 -48.5489,-181.3747"
           id="path11775" />
        <path
           style="fill:none;fill-rule:evenodd;stroke:#000000;stroke-width:1.37262;stroke-linecap:round;stroke-linejoin:round"
           d="m -2990.6798,2039.2632 c 12.7692,15.957 20.4071,36.1946 20.4071,58.206 0,22.0099 -7.6379,42.2475 -20.4071,58.2045"
           id="path11777" />
        <path
           style="fill:none;fill-rule:evenodd;stroke:#000000;stroke-width:1.37262;stroke-linecap:round;stroke-linejoin:round"
           d="m -2990.7104,2039.2535 c 6.3628,-64.0749 23.1187,-125.1073 48.5553,-181.3893"
           id="path11779" />
        <path
           style="fill:none;fill-rule:evenodd;stroke:#000000;stroke-width:1.37262;stroke-linecap:round;stroke-linejoin:round"
           d="m -1944.4267,2097.4692 c 0,257.3795 -208.9146,466.2925 -466.2941,466.2925 -257.3795,0 -466.2924,-208.913 -466.2924,-466.2925 0,-257.3811 208.9129,-466.294 466.2924,-466.294 257.3795,0 466.2941,208.9129 466.2941,466.294 z"
           id="path11781" />
        <path
           style="fill:none;fill-rule:evenodd;stroke:#000000;stroke-width:1.37262;stroke-linecap:round;stroke-linejoin:round"
           d="m -1944.4267,2097.4692 c 0,257.3795 -208.9146,466.2925 -466.2941,466.2925 -257.3795,0 -466.2924,-208.913 -466.2924,-466.2925 0,-257.3811 208.9129,-466.294 466.2924,-466.294 257.3795,0 466.2941,208.9129 466.2941,466.294 z"
           id="path11783" />
        <path
           style="fill:none;fill-rule:evenodd;stroke:#000000;stroke-width:1.37262;stroke-linecap:round;stroke-linejoin:round"
           d="m -1902.9557,1844.4058 c -18.4459,-14.5075 -31.2941,-35.8201 -34.7451,-60.1429"
           id="path11785" />
        <path
           style="fill:none;fill-rule:evenodd;stroke:#000000;stroke-width:1.37262;stroke-linecap:round;stroke-linejoin:round"
           d="m -1902.9008,1844.3994 c 33.1924,66.4266 53.7334,140.2604 58.4563,218.3392"
           id="path11787" />
        <path
           style="fill:none;fill-rule:evenodd;stroke:#000000;stroke-width:1.37262;stroke-linecap:round;stroke-linejoin:round"
           d="m -1844.4768,2132.2047 c -4.3161,-10.737 -6.6921,-22.4602 -6.6921,-34.7355 0,-12.2752 2.376,-24 6.6921,-34.737"
           id="path11789" />
        <path
           style="fill:none;fill-rule:evenodd;stroke:#000000;stroke-width:1.37262;stroke-linecap:round;stroke-linejoin:round"
           d="m -1844.4445,2132.1901 c -4.7213,78.0837 -25.2639,151.924 -58.4595,218.3538"
           id="path11791" />
        <path
           style="fill:none;fill-rule:evenodd;stroke:#000000;stroke-width:1.37262;stroke-linecap:round;stroke-linejoin:round"
           d="m -1937.7008,2410.674 c 3.451,-24.3229 16.2992,-45.6354 34.7468,-60.1446"
           id="path11793" />
        <path
           style="fill:none;fill-rule:evenodd;stroke:#000000;stroke-width:1.37262;stroke-linecap:round;stroke-linejoin:round"
           d="m -1937.7056,2410.6611 c -42.0457,63.3453 -96.4715,117.7712 -159.8153,159.8185"
           id="path11795" />
        <path
           style="fill:none;fill-rule:evenodd;stroke:#000000;stroke-width:1.37262;stroke-linecap:round;stroke-linejoin:round"
           d="m -2157.6574,2605.2344 c 14.5075,-18.4476 35.8201,-31.2942 60.1414,-34.7451"
           id="path11797" />
        <path
           style="fill:none;fill-rule:evenodd;stroke:#000000;stroke-width:1.37262;stroke-linecap:round;stroke-linejoin:round"
           d="m -2157.6509,2605.2876 c -66.4267,33.194 -140.2621,53.7336 -218.3393,58.4568"
           id="path11799" />
        <path
           style="fill:none;fill-rule:evenodd;stroke:#000000;stroke-width:1.37262;stroke-linecap:round;stroke-linejoin:round"
           d="m -2445.4578,2663.7132 c 10.7386,-4.3169 22.4618,-6.6929 34.737,-6.6929 12.2752,0 24.0001,2.376 34.7371,6.6929"
           id="path11801" />
        <path
           style="fill:none;fill-rule:evenodd;stroke:#000000;stroke-width:1.37262;stroke-linecap:round;stroke-linejoin:round"
           d="m -2445.4417,2663.745 c -78.0837,-4.7224 -151.9239,-25.2634 -218.3538,-58.459"
           id="path11803" />
        <path
           style="fill:none;fill-rule:evenodd;stroke:#000000;stroke-width:1.37262;stroke-linecap:round;stroke-linejoin:round"
           d="m -2723.9256,2570.4893 c 24.3229,3.4509 45.6355,16.2991 60.143,34.7467"
           id="path11805" />
        <path
           style="fill:none;fill-rule:evenodd;stroke:#000000;stroke-width:1.37262;stroke-linecap:round;stroke-linejoin:round"
           d="m -2723.9126,2570.4828 c -63.3454,-42.0457 -117.7728,-96.4715 -159.8185,-159.8153"
           id="path11807" />
        <path
           style="fill:none;fill-rule:evenodd;stroke:#000000;stroke-width:1.37262;stroke-linecap:round;stroke-linejoin:round"
           d="m -2918.4859,2350.531 c 18.4475,14.5076 31.2941,35.8201 34.7451,60.143"
           id="path11809" />
        <path
           style="fill:none;fill-rule:evenodd;stroke:#000000;stroke-width:1.37262;stroke-linecap:round;stroke-linejoin:round"
           d="m -2918.5408,2350.5375 c -33.1923,-66.4267 -53.7318,-140.2604 -58.4562,-218.3393"
           id="path11811" />
        <path
           style="fill:none;fill-rule:evenodd;stroke:#000000;stroke-width:1.37262;stroke-linecap:round;stroke-linejoin:round"
           d="m -2976.9648,2062.7322 c 4.3161,10.737 6.6921,22.4618 6.6921,34.737 0,12.2753 -2.376,23.9985 -6.6921,34.7371"
           id="path11813" />
        <path
           style="fill:none;fill-rule:evenodd;stroke:#000000;stroke-width:1.37262;stroke-linecap:round;stroke-linejoin:round"
           d="m -2976.997,2062.7467 c 4.7228,-78.0837 25.2639,-151.9223 58.4594,-218.3538"
           id="path11815" />
        <path
           style="fill:none;fill-rule:evenodd;stroke:#000000;stroke-width:1.37262;stroke-linecap:round;stroke-linejoin:round"
           d="m -2883.7408,1784.2629 c -3.451,24.3228 -16.2992,45.637 -34.7467,60.1445"
           id="path11817" />
        <path
           style="fill:none;fill-rule:evenodd;stroke:#000000;stroke-width:1.37262;stroke-linecap:round;stroke-linejoin:round"
           d="m -2883.736,1784.2758 c 42.0457,-63.3454 96.4732,-117.7712 159.8169,-159.8185"
           id="path11819" />
        <path
           style="fill:none;fill-rule:evenodd;stroke:#000000;stroke-width:1.37262;stroke-linecap:round;stroke-linejoin:round"
           d="m -2663.7826,1589.7025 c -14.5075,18.4475 -35.8217,31.2942 -60.143,34.7467"
           id="path11821" />
        <path
           style="fill:none;fill-rule:evenodd;stroke:#000000;stroke-width:1.37262;stroke-linecap:round;stroke-linejoin:round"
           d="m -2663.789,1589.6492 c 66.425,-33.1923 140.2604,-53.7334 218.3376,-58.4562"
           id="path11823" />
        <path
           style="fill:none;fill-rule:evenodd;stroke:#000000;stroke-width:1.37262;stroke-linecap:round;stroke-linejoin:round"
           d="m -2375.9837,1531.2237 c -10.737,4.3177 -22.4619,6.6936 -34.7371,6.6936 -12.2752,0 -23.9984,-2.3759 -34.737,-6.6936"
           id="path11825" />
        <path
           style="fill:none;fill-rule:evenodd;stroke:#000000;stroke-width:1.37262;stroke-linecap:round;stroke-linejoin:round"
           d="m -2375.9999,1531.193 c 78.0837,4.7212 151.9239,25.2639 218.3538,58.4595"
           id="path11827" />
        <path
           style="fill:none;fill-rule:evenodd;stroke:#000000;stroke-width:1.37262;stroke-linecap:round;stroke-linejoin:round"
           d="m -2097.5144,1624.4492 c -24.3229,-3.4525 -45.6371,-16.2992 -60.1446,-34.7467"
           id="path11829" />
        <path
           style="fill:none;fill-rule:evenodd;stroke:#000000;stroke-width:1.37262;stroke-linecap:round;stroke-linejoin:round"
           d="m -2097.5273,1624.4541 c 63.3437,42.0456 117.7712,96.4715 159.8168,159.8152"
           id="path11831" />
      </g>
      <g
         id="g27579"
         transform="translate(-779.09138,-9.5116597)">
        <path
           id="path302-3"
           style="fill:none;stroke:#008000;stroke-width:3.63172;stroke-linecap:butt;stroke-linejoin:miter;stroke-miterlimit:10;stroke-dasharray:none;stroke-opacity:1"
           d="m 2063.3122,4623.9008 -14.4265,31.5729 -59.075,54.1221 m 108.063,-124.6045 12.4036,-38.0817 -4.1458,-11.0628 -16.28,-8.552 -4.08,16.8815 m 147.8429,97.4779 12.835,-17.219 -32.1919,-25.0825 -39.4771,-12.9174 -76.9067,-1.444 -27.2902,18.5085 -39.4326,10.3162 -25.6386,5.7569 24.9057,9.0152 0.7329,-14.7721 -0.7329,14.7721 32.8942,-4.6873 7.2713,-20.401 -7.2713,20.401 36.7895,19.0976 28.8939,19.3087 45.7848,-75.8718 -45.7848,75.8718 13.4338,14.4756" />
        <path
           id="path244"
           style="fill:none;stroke:#008000;stroke-width:3.63172;stroke-linecap:butt;stroke-linejoin:miter;stroke-miterlimit:10;stroke-dasharray:none;stroke-opacity:1"
           d="m 2871.0037,4727.0744 -34.1681,5.6329 -30.6713,-11.9218 m 172.3541,-40.2464 27.4251,-13.7099 -13.9171,-11.4765 -12.8948,11.5642 -46.173,-15.3726 m -0.5029,25.3094 -34.4822,60.0446 -42.1715,37.192 15.2017,-47.0159 26.9698,9.8239 -26.9698,-9.8239 61.9549,-75.5301 m -22.0439,-22.831 22.0439,22.831 -0.5029,25.3094 16.6069,10.7533 29.4558,-7.0679 0.6132,-13.6222" />
        <path
           id="path358-6"
           style="fill:none;stroke:#008000;stroke-width:3.63171;stroke-linecap:butt;stroke-linejoin:miter;stroke-miterlimit:10;stroke-dasharray:none;stroke-opacity:1"
           d="m 2193.3884,5270.8661 9.769,40.9313 14.4355,-11.9815 -14.4355,11.9815 7.6786,28.8763 6.7569,-40.8578 -5.5503,-40.5422 5.5503,40.5422 33.297,5.9292 21.6599,21.9664 -4.5343,3.2401 m -87.5177,-98.7591 12.8906,38.6736 18.6542,-11.5924 -13.1594,-30.8305 -18.3854,3.7493 -16.9357,-13.5193 -14.7445,-8.6908 -11.1452,-23.8643 m 61.2108,42.3251 20.8369,-16.9519 32.5696,10.4307 36.4235,30.3829 -5.022,7.6214 5.022,-7.6214 -36.4235,-30.3829 -32.5696,-10.4307 72.8584,-38.7135 7.0886,-6.5714" />
        <path
           id="path362"
           style="fill:none;stroke:#008000;stroke-width:3.63172;stroke-linecap:butt;stroke-linejoin:miter;stroke-miterlimit:10;stroke-dasharray:none;stroke-opacity:1"
           d="m 2928.7724,5185.4257 -40.6064,43.7435 19.3337,22.7265 27.278,-15.366 -6.0053,-51.104 -16.8035,-30.6634 -33.4229,3.6271 -31.9406,17.2576 31.9406,-17.2576 33.4229,-3.6271 -15.8176,-47.2412 -3.7211,-42.2345 3.7211,42.2345 15.8176,47.2412 -58.4314,-42.9538 -31.3263,-6.0304 -40.8611,-13.5018 40.8611,13.5018 31.3263,6.0304 -34.6686,-42.5328 -28.715,-4.584" />
        <path
           id="path148-4"
           style="fill:none;stroke:#008000;stroke-width:3.63172;stroke-linecap:butt;stroke-linejoin:miter;stroke-miterlimit:10;stroke-dasharray:none;stroke-opacity:1"
           d="m 2715.1392,5343.2198 42.2144,30.1551 9.4971,33.8285 9.0569,-5.2641 -18.554,-28.5644 m -113.6958,-152.6972 -68.1997,9.0825 m 68.1997,-9.0825 27.7824,-33.5651 7.4575,-16.6492 m -35.2399,50.2143 6.9755,79.3806 2.8448,60.1069 43.2388,16.4306 18.4223,-33.376 -33.8042,-40.9422 -37.6772,-81.5999" />
        <path
           id="path258-1"
           style="fill:none;stroke:#008000;stroke-width:3.63172;stroke-linecap:butt;stroke-linejoin:miter;stroke-miterlimit:10;stroke-dasharray:none;stroke-opacity:1"
           d="m 2845.0372,4886.1269 -6.6335,99.7228 89.1571,-40.6154 45.9657,3.4283 -6.9003,-27.0543 -48.7743,-31.9297 48.7743,31.9297 6.9003,27.0543 43.0315,30.0221 -7.058,-72.9905 39.6076,44.1182 -32.5496,28.8723 -178.1543,7.165" />
        <path
           id="path222-3"
           style="fill:none;stroke:#008000;stroke-width:3.63171;stroke-linecap:butt;stroke-linejoin:miter;stroke-miterlimit:10;stroke-dasharray:none;stroke-opacity:1"
           d="m 2563.4886,4368.5766 -15.3951,-31.5537 -17.4014,-12.5027 m 87.2602,182.8062 -17.0001,13.8749 -10.5314,7.8523 m -87.3286,-102.9341 -25.9275,-56.7087 78.129,17.1652 8.1949,-17.9994 -8.1949,17.9994 0.6687,63.3841 -23.5024,2.3756 23.5024,-2.3756 6.6479,41.0651 12.0351,17.8451 15.7754,20.1833 -15.7754,-20.1833 -12.0351,-17.8451 -36.3755,-2.7068 -8.1196,4.667 -30.7372,13.5447 31.7813,34.5503 -31.7813,-34.5503 30.7372,-13.5447 8.1196,-4.667 6.2252,-35.9827 -29.3678,-26.2162 -15.3614,14.7233 -13.2143,16.4191 -7.7713,13.4103 -10.9182,3.4081" />
        <path
           id="path324-0"
           style="fill:none;stroke:#008000;stroke-width:3.63172;stroke-linecap:butt;stroke-linejoin:miter;stroke-miterlimit:10;stroke-dasharray:none;stroke-opacity:1"
           d="m 2512.5989,5413.7539 -9.3105,0.1645 5.9819,9.7011 5.4336,6.405 -2.105,-16.2706 12.7165,-18.2653 -8.9626,-17.6582 -7.045,-8.1744 -1.5718,-35.5015 -28.0064,3.4784 -5.2157,-3.3648 -14.4191,-13.119 -13.0091,-6.0977 -42.2347,-6.4967 -23.6922,14.7053 -6.5731,28.9876 -4.8242,30.0674 -11.9851,32.4105 m 89.3093,-99.6741 -4.1331,-29.2591 0.7732,-10.6383 -0.1868,-9.1342 -10.1476,-15.9496 m -28.5404,58.4845 -33.0248,-30.1782 -19.3683,-15.9906 m 70.0624,150.4137 26.3319,-17.2319 18.6315,-31.3394 12.2459,-26.5954 -5.2157,-3.3648 -14.4191,-13.119 -13.0091,-6.0977 13.0091,6.0977 14.4191,13.119 5.2157,3.3648 -12.2459,26.5954 -18.6315,31.3394 -1.7665,-80.5163 -42.2347,-6.4967 3.1344,82.4149 -5.6329,-4.2905 -27.7668,-34.4315 27.7668,34.4315 5.6329,4.2905 14.5349,21.83" />
        <path
           id="path204-5"
           style="fill:none;stroke:#008000;stroke-width:3.63173;stroke-linecap:butt;stroke-linejoin:miter;stroke-miterlimit:10;stroke-dasharray:none;stroke-opacity:1"
           d="m 2147.6817,4903.0519 -21.8061,-26.813 -27.4286,-58.1579 -52.4628,-40.9022 -28.2558,1.4329 -11.0888,20.28 -17.3422,31.4135 -13.2323,43.7186 4.5786,5.6378 -4.5786,-5.6378 -29.5637,4.0207 2.0802,20.742 -2.0802,-20.742 -6.3507,-72.4104 7.3089,-16.7596 -7.6651,-13.6234 -19.7213,9.9799 20.0775,20.4031 6.3507,72.4104" />
        <path
           id="path310-1"
           style="fill:none;stroke:#008000;stroke-width:3.63172;stroke-linecap:butt;stroke-linejoin:miter;stroke-miterlimit:10;stroke-dasharray:none;stroke-opacity:1"
           d="m 2348.1926,4401.6378 9.8608,-9.4811 -2.9518,-14.6269 -6.909,24.108 2.4513,48.2755 4.6173,35.8986 8.3094,41.3112 -20.801,-25.0774 -39.5827,-32.8795 -16.1734,-7.2025 -51.2545,-29.5778 -21.3998,-9.3911 -8.3034,-11.5774 -18.9976,2.403 2.0673,14.8673 15.3905,9.9571 9.8432,-15.65" />
        <path
           id="path166-5"
           style="fill:none;stroke:#008000;stroke-width:3.63173;stroke-linecap:butt;stroke-linejoin:miter;stroke-miterlimit:10;stroke-dasharray:none;stroke-opacity:1"
           d="m 2705.4709,4583.0477 59.2264,7.6059 -3.2266,-57.5305 39.9112,-20.9442 2.4588,-60.912" />
        <path
           id="path284-0"
           style="fill:none;stroke:#008000;stroke-width:3.63172;stroke-linecap:butt;stroke-linejoin:miter;stroke-miterlimit:10;stroke-dasharray:none;stroke-opacity:1"
           d="m 1972.3584,5098.1324 -6.2084,41.7307 12.1659,7.1866 -1.1394,-41.9021 m 47.9179,-33.4983 -20.9556,6.1271 -29.3392,23.8731 m 78.1388,64.5752 16.0011,0.8208 16.6462,-11.4247 10.0086,0.3247 10.3388,-6.2231 -34.4619,-47.4194 34.4619,47.4194 5.7491,-6.7675 14.4057,-15.976 0.022,-8.9305 m -101.0148,-46.3991 46.3766,30.6537 -29.8004,6.3248 -0.012,0.013 -16.5701,-36.99 m -10e-5,2e-4 73.2918,-35.7808 47.0449,-58.4132 -47.0449,58.4132 1.6046,11.457 0.012,11.4485 -28.5289,43.5291 28.5289,-43.5291 22.95,1.33 52.6258,-9.1162" />
        <path
           sodipodi:type="star"
           style="fill:none;stroke:#000000;stroke-width:3.63172;stroke-linejoin:round;stroke-miterlimit:10;stroke-dasharray:none;paint-order:markers fill stroke"
           id="path27472"
           sodipodi:sides="12"
           sodipodi:cx="2488.2786"
           sodipodi:cy="-4887.5835"
           sodipodi:r1="457.52811"
           sodipodi:r2="441.93823"
           sodipodi:arg1="-0.10711532"
           sodipodi:arg2="0.15468406"
           inkscape:flatsided="true"
           inkscape:rounded="0"
           inkscape:randomized="0"
           d="m 2943.1844,-4936.4981 -36.4885,234.0062 -148.6031,184.4111 -220.8996,85.4032 -234.0063,-36.4886 -184.4111,-148.6031 -85.4031,-220.8996 36.4885,-234.0062 148.6031,-184.4111 220.8997,-85.4031 234.0062,36.4885 184.4111,148.6031 z"
           transform="scale(1,-1)"
           inkscape:transform-center-x="6.2117774e-06"
           inkscape:transform-center-y="3.3231081e-05" />
      </g>
      <path
         id="path302-3-9"
         style="fill:none;stroke:#570080;stroke-width:6.05287;stroke-linecap:round;stroke-linejoin:round;stroke-miterlimit:10;stroke-dasharray:none;stroke-opacity:1"
         d="m 2583.9142,6690.2521 46.2524,-14.7614 111.5727,10.299 m -230.6023,5.2566 -51.0898,22.9845 -7.557,14.7099 6.4498,24.9253 21.3145,-11.6593 m -38.0561,-245.0029 -29.8944,2.9014 4.2929,56.9783 23.7368,53.0805 70.8033,81.0823 44.8186,10.8695 47.751,31.1672 30.0629,21.1592 -14.0791,-34.3028 -15.9838,13.1436 15.9838,-13.1436 -35.7762,-29.6873 -27.9586,11.6637 27.9586,-11.6637 -14.8115,-56.1113 -7.1706,-48.1253 -121.5984,23.9485 121.5984,-23.9485 2.359,-27.5501" />
      <path
         id="path244-9"
         style="fill:none;stroke:#570080;stroke-width:6.05287;stroke-linecap:round;stroke-linejoin:round;stroke-miterlimit:10;stroke-dasharray:none;stroke-opacity:1"
         d="m 996.58042,6660.4442 38.64258,-59.7517 60.6134,-30.0486 m -176.85628,317.8446 -16.9855,60.7257 36.7676,-5.2057 0.1711,-35.6626 87.31688,-48.8126 m -37.95208,-35.927 -44.0096,-135.8239 1.5181,-115.7602 50.7738,88.422 -52.2919,27.3382 52.2919,-27.3382 29.66978,199.0891 m 65.3427,-1.7811 -65.3427,1.7811 -37.95208,-35.927 -39.3824,10.298 -29.9356,54.5842 19.9532,19.8574" />
      <path
         id="path358-6-4"
         style="fill:none;stroke:#570080;stroke-width:6.05287;stroke-linecap:round;stroke-linejoin:round;stroke-miterlimit:10;stroke-dasharray:none;stroke-opacity:1"
         d="m 2198.4847,6710.1533 35.1701,61.4008 17.6538,-26.1479 -17.6538,26.1479 26.0831,42.9454 -8.4293,-69.0933 -28.1685,-62.7672 28.1685,62.7672 56.6158,-6.1744 45.4047,25.192 -5.7931,7.3691 m -188.1964,-117.9236 39.1451,56.284 24.6554,-27.5143 -35.8653,-43.5068 -27.9352,14.7371 -33.7703,-13.8007 -27.9428,-7.0485 -29.3116,-33.2228 m 118.9599,39.3349 25.6447,-37.1905 57.5719,1.4299 73.2483,31.7889 -4.5062,14.6663 4.5062,-14.6663 -73.2483,-31.7889 -57.5719,-1.4299 99.4059,-96.8776 8.3431,-13.9496" />
      <path
         id="path148-4-3"
         style="fill:none;stroke:#570080;stroke-width:6.05287;stroke-linecap:round;stroke-linejoin:round;stroke-miterlimit:10;stroke-dasharray:none;stroke-opacity:1"
         d="m 361.69662,6845.6959 45.8524,63.1457 -2.6682,52.7241 15.4708,-3.1641 -12.8026,-49.56 m -89.177,-271.8762 -101.8262,-19.6945 m 101.8262,19.6945 55.8188,-34.5125 18.6507,-20.1444 m -74.4695,54.6569 -28.1409,116.395 -24.791,86.9681 53.9053,44.0888 42.3512,-38.7214 -28.6543,-74.4854 -14.6703,-134.2451" />
      <path
         id="path258-1-3"
         style="fill:none;stroke:#570080;stroke-width:6.05287;stroke-linecap:round;stroke-linejoin:round;stroke-miterlimit:10;stroke-dasharray:none;stroke-opacity:1"
         d="m 752.91882,6597.4662 -158.3266,-17.5472 58.1166,143.479 -8.8448,72.2398 43.5936,-8.9583 54.4424,-74.6436 -54.4424,74.6436 -43.5936,8.9583 -50.9813,65.7232 116.7621,-5.9423 -73.1781,59.3221 -43.584,-53.3798 1.7095,-281.442" />
      <path
         id="path222-3-2"
         style="fill:none;stroke:#570080;stroke-width:6.05287;stroke-linecap:round;stroke-linejoin:round;stroke-miterlimit:10;stroke-dasharray:none;stroke-opacity:1"
         d="m 1500.3604,6820.5983 6.6466,55.6665 19.6899,28.0056 m -35.5926,-321.4864 32.9515,-11.9663 20.0224,-6.2928 m 77.6855,201.1259 9.3183,99.128 -108.8911,-66.9986 -21.8305,22.8181 21.8305,-22.8181 32.3126,-95.8949 36.7196,8.79 -36.7196,-8.79 11.5551,-65.3993 -8.7822,-33.2339 -13.1982,-38.7272 13.1982,38.7272 8.7822,33.2339 53.4763,23.2269 14.7079,-2.7609 53.5103,-4.2379 -29.8018,-68.8085 29.8018,68.8085 -53.5103,4.2379 -14.7079,2.7609 -28.3118,50.9624 30.5406,54.9755 30.9242,-14.1077 28.5753,-17.794 18.7787,-16.1237 18.2698,0.6098" />
      <path
         id="path204-5-7"
         style="fill:none;stroke:#570080;stroke-width:6.05287;stroke-linecap:round;stroke-linejoin:round;stroke-miterlimit:10;stroke-dasharray:none;stroke-opacity:1"
         d="m 2031.3867,6514.2717 -40.4912,33.0654 -87.9528,41.7474 -61.6452,79.4001 2.3515,42.6137 30.8013,16.5971 47.7119,25.9588 66.3319,19.6804 8.5139,-6.9427 -8.5139,6.9427 6.281,44.57 31.4177,-3.2707 -31.4177,3.2707 -109.684,10.0436 -25.4428,-10.9178 -20.5947,11.6497 15.2482,29.6848 30.7893,-30.4167 109.684,-10.0436" />
      <path
         id="path310-1-9"
         style="fill:none;stroke:#570080;stroke-width:6.05287;stroke-linecap:round;stroke-linejoin:round;stroke-miterlimit:10;stroke-dasharray:none;stroke-opacity:1"
         d="m 2751.2089,6766.8886 -19.3057,12.9939 0.6068,25.4112 18.6989,-38.4051 10.1955,-81.7148 2.9064,-61.5901 -1.6681,-71.7612 27.375,48.2153 56.4877,66.8516 24.9265,16.8601 76.9933,64.7594 33.0224,22.0754 10.4637,21.8755 32.4961,1.5791 0.9442,-25.5531 -22.8008,-21.2501 -21.1032,23.3486" />
      <path
         id="path166-5-0"
         style="fill:none;stroke:#570080;stroke-width:6.05287;stroke-linecap:round;stroke-linejoin:round;stroke-miterlimit:10;stroke-dasharray:none;stroke-opacity:1"
         d="m 1367.4342,6536.0332 -127.0173,79.9881 97.8728,105.695 -44.0797,104.1337 92.2272,121.2959" />
      <path
         id="path284-0-5"
         style="fill:none;stroke:#570080;stroke-width:6.05287;stroke-linecap:round;stroke-linejoin:round;stroke-miterlimit:10;stroke-dasharray:none;stroke-opacity:1"
         d="m 3138.5699,6864.3527 46.7488,44.8159 19.7943,-8.8487 -53.4831,-35.7707 m 0.5696,-89.7158 -10.9216,31.6695 3.8623,57.9162 m 150.1988,-40.4826 15.2258,-19.3003 0.4639,-30.9777 9.2872,-12.2396 1.3808,-18.4656 -89.96,1.0417 89.96,-1.0417 -3.3732,-13.2037 -7.2238,-32.2137 -11.1643,-7.9544 m -147.7359,85.2519 79.5372,-30.8384 -18.5221,42.916 0.012,0.017 -61.0241,-12.0955 m 3e-4,5e-4 20.2261,-123.5028 -31.405,-110.7403 31.405,110.7403 15.7709,8.162 14.3446,10.1515 29.1957,74.3509 -29.1957,-74.3509 22.0294,-27.5459 35.2798,-73.9646" />
      <path
         d="m 3547.5498,6518.6337 -34.5571,29.2115 12.4381,18.9132 21.9217,-9.0584 0.1973,-39.0663 -9.8043,-24.6605 -25.4587,-0.3558 -25.6009,10.053 25.6009,-10.053 25.4587,0.3558 -7.5348,-37.0622 1.0966,-32.1712 -1.0966,32.1712 7.5348,37.0622 -39.9632,-37.7699 -22.9922,-7.4397 -29.4707,-13.9513 29.4707,13.9513 22.9922,7.4397 -22.1392,-35.2563 -21.1627,-6.1084"
         style="fill:none;stroke:#570080;stroke-width:6.05287;stroke-linecap:round;stroke-linejoin:round;stroke-miterlimit:10;stroke-dasharray:none;stroke-opacity:1"
         id="path362-1-0" />
      <path
         d="m 3770.7994,6749.0906 -9.3105,0.1645 5.9819,9.7011 5.4336,6.405 -2.105,-16.2706 12.7165,-18.2653 -8.9626,-17.6582 -7.045,-8.1744 -1.5718,-35.5015 -28.0064,3.4784 -5.2157,-3.3648 -14.4191,-13.119 -13.0092,-6.0977 -42.2346,-6.4967 -23.6922,14.7053 -6.5732,28.9876 -4.8241,30.0674 -11.9851,32.4105 m 89.3092,-99.6741 -4.133,-29.2591 0.7732,-10.6383 -0.1868,-9.1342 -10.1476,-15.9496 m -28.5404,58.4845 -33.0249,-30.1782 -19.3682,-15.9906 m 70.0624,150.4137 26.3319,-17.2319 18.6315,-31.3394 12.2459,-26.5954 -5.2157,-3.3648 -14.4191,-13.119 -13.0092,-6.0977 13.0092,6.0977 14.4191,13.119 5.2157,3.3648 -12.2459,26.5954 -18.6315,31.3394 -1.7666,-80.5163 -42.2346,-6.4967 3.1344,82.4149 -5.6329,-4.2905 -27.7669,-34.4315 27.7669,34.4315 5.6329,4.2905 14.5349,21.83"
         style="fill:none;stroke:#570080;stroke-width:6.05287;stroke-linecap:round;stroke-linejoin:round;stroke-miterlimit:10;stroke-dasharray:none;stroke-opacity:1"
         id="path324-0-0-9" />
      <g
         style="fill:none;stroke:#570080;stroke-width:6.05287;stroke-miterlimit:4;stroke-dasharray:none;stroke-opacity:1"
         transform="rotate(29.753259,5901.523,6662.9182)"
         id="g27660">
        <path
           d="m 3987.004,4282.9442 -32.1415,13.1107 -80.112,-1.0592 m 164.0874,-16.7091 35.1281,-19.2376 4.5608,-10.8982 -5.9975,-17.3841 -14.5391,9.4999 m 40.8877,172.3011 21.147,-3.7467 -6.26,-40.327 -19.9018,-36.4584 -55.0252,-53.749 -32.5589,-5.219 -35.7893,-19.5059 -22.6184,-13.3748 11.9626,23.6318 10.6558,-10.257 -10.6558,10.257 27.1701,19.1255 19.275,-9.8766 -19.275,9.8766 13.7096,39.1182 7.8142,33.8618 85.3353,-23.8886 -85.3353,23.8886 -0.1344,19.7482"
           style="fill:none;stroke:#570080;stroke-width:6.05287;stroke-linecap:butt;stroke-linejoin:miter;stroke-miterlimit:4;stroke-dasharray:none;stroke-opacity:1"
           id="path302-3-2" />
        <path
           d="m 4504.5863,4911.5291 -28.7459,-19.3097 -14.1703,-29.6995 m 153.1105,88.7856 29.3691,8.8065 -2.2727,-17.895 -17.3157,-0.4129 -23.0964,-42.8348 m -17.7086,18.0893 -66.2581,20.1056 -56.1998,-1.8077 43.2879,-23.8274 12.9119,25.6351 -12.9119,-25.6351 96.8786,-12.5598 m -0.4115,-31.7336 0.4115,31.7336 -17.7086,18.0893 4.7273,19.2114 26.297,15.0355 9.7807,-9.5014"
           style="fill:none;stroke:#570080;stroke-width:6.05287;stroke-linecap:butt;stroke-linejoin:miter;stroke-miterlimit:4;stroke-dasharray:none;stroke-opacity:1"
           id="path244-7" />
        <path
           d="m 3638.4368,4843.2876 -20.9314,36.506 18.7239,1.1647 -18.7239,-1.1647 -14.1937,26.2933 32.9176,-25.1286 23.7374,-33.3319 -23.7374,33.3319 20.1889,27.1339 0.7243,30.8407 -5.5227,-0.747 m 3.9277,-131.8988 -17.1107,37.0005 21.5299,4.3388 11.5408,-31.4722 -15.96,-9.8671 -3.0714,-21.4512 -4.7841,-16.433 8.2345,-25.0182 m 15.581,72.7695 26.7921,1.9309 16.5746,29.9142 5.7102,47.087 -8.88,2.1098 8.88,-2.1098 -5.7102,-47.087 -16.5746,-29.9142 79.5929,21.7266 9.6658,0.071"
           style="fill:none;stroke:#570080;stroke-width:6.05287;stroke-linecap:butt;stroke-linejoin:miter;stroke-miterlimit:4;stroke-dasharray:none;stroke-opacity:1"
           id="path358-6-7" />
        <path
           d="m 4232.5946,5284.9506 -59.549,4.0364 -1.4908,29.8004 30.3967,7.4994 30.6431,-41.3362 8.7721,-33.8475 -26.8287,-20.2599 -35.0889,-9.3166 35.0889,9.3166 26.8287,20.2599 20.8495,-45.2462 26.2293,-33.3111 -26.2293,33.3111 -20.8495,45.2462 -13.1258,-71.323 -18.6842,-25.8573 -20.5094,-37.8324 20.5094,37.8324 18.6842,25.8573 3.8933,-54.7338 -17.7734,-23.0146"
           style="fill:none;stroke:#570080;stroke-width:6.05287;stroke-linecap:butt;stroke-linejoin:miter;stroke-miterlimit:4;stroke-dasharray:none;stroke-opacity:1"
           id="path362-2" />
        <path
           d="m 3968.8737,5253.4953 10.0841,50.8891 -16.2625,31.1463 10.2035,2.3719 6.059,-33.5182 m 21.82,-189.1218 -55.8963,-40.116 m 55.8963,40.116 43.2343,-5.4102 16.8399,-7.0164 m -60.0742,12.4266 -49.3119,62.5962 -39.1139,45.7278 20.2343,41.5948 36.2874,-11.6861 3.433,-52.983 28.4711,-85.2497"
           style="fill:none;stroke:#570080;stroke-width:6.05287;stroke-linecap:butt;stroke-linejoin:miter;stroke-miterlimit:4;stroke-dasharray:none;stroke-opacity:1"
           id="path148-4-0" />
        <path
           d="m 4376.6892,5009.5816 -73.1626,68.0872 92.7673,31.5094 31.1297,33.9932 13.5121,-24.433 -13.6459,-56.6765 13.6459,56.6765 -13.5121,24.433 10.7703,51.3521 44.8733,-57.9985 -1.3823,59.2728 -43.491,-1.2743 -134.6673,-116.8547"
           style="fill:none;stroke:#570080;stroke-width:6.05287;stroke-linecap:butt;stroke-linejoin:miter;stroke-miterlimit:4;stroke-dasharray:none;stroke-opacity:1"
           id="path258-1-6" />
        <path
           d="m 4526.2558,4439.7064 10.408,-33.5309 -4.1072,-21.0299 m -61.7053,192.9376 -21.8892,-1.5429 -13.0509,-1.4971 m 6.9262,-134.81 19.9732,-59.0693 45.1431,66.037 18.3021,-7.4945 -18.3021,7.4945 -42.9444,46.6237 -18.7456,-14.3738 18.7456,14.3738 -23.2963,34.4648 -3.4619,21.2439 -2.3399,25.5099 2.3399,-25.5099 3.4619,-21.2439 -24.6392,-26.8964 -9.1117,-2.1645 -31.6683,-11.1962 -0.5265,46.9414 0.5265,-46.9414 31.6683,11.1962 9.1117,2.1645 29.1899,-21.9422 -3.4263,-39.2176 -21.277,0.1978 -20.8751,2.9042 -14.849,4.4424 -10.2875,-4.999"
           style="fill:none;stroke:#570080;stroke-width:6.05287;stroke-linecap:butt;stroke-linejoin:miter;stroke-miterlimit:4;stroke-dasharray:none;stroke-opacity:1"
           id="path222-3-0" />
        <path
           d="m 3773.0238,5166.0857 -6.8939,-6.2598 -2.2905,11.1646 -0.4312,8.3882 9.6156,-13.293 21.7776,-4.59 5.5717,-19.0025 0.47,-10.7811 23.1812,-26.9343 -22.7817,-16.6568 -1.4933,-6.0246 -1.5128,-19.4353 -5.2969,-13.3552 -26.3098,-33.6715 -27.3323,-5.5236 -24.6501,16.609 -24.1162,18.5938 -30.9373,15.3937 m 133.3457,-11.4014 17.0384,-24.1428 7.8526,-7.2185 6.1228,-6.7809 3.5379,-18.57 m -60.8615,23.0407 -3.375,-44.6091 -3.1499,-24.918 m -52.0355,157.5605 30.9862,5.4921 35.0443,-10.0593 27.1427,-10.9796 -1.4933,-6.0246 -1.5128,-19.4353 -5.2969,-13.3552 5.2969,13.3552 1.5128,19.4353 1.4933,6.0246 -27.1427,10.9796 -35.0443,10.0593 53.884,-59.854 -26.3098,-33.6715 -54.1886,62.1742 -1.1628,-6.9847 3.369,-44.1041 -3.369,44.1041 1.1628,6.9847 -4.3718,25.8592"
           style="fill:none;stroke:#570080;stroke-width:6.05287;stroke-linecap:butt;stroke-linejoin:miter;stroke-miterlimit:4;stroke-dasharray:none;stroke-opacity:1"
           id="path324-0-5" />
        <path
           d="m 3857.1768,4544.0733 2.4902,-34.4708 19.8729,-61.1534 -10.1844,-65.739 -21.5618,-18.3175 -21.9725,7.1726 -34.156,10.9968 -39.5941,22.7753 -0.5283,7.2436 0.5283,-7.2436 -24.2876,-17.3289 -12.6976,16.5327 12.6976,-16.5327 44.9909,-57.0913 16.8072,-7.1986 3.7521,-15.1748 -21.2023,-6.2444 0.643,28.6178 -44.9909,57.0913"
           style="fill:none;stroke:#570080;stroke-width:6.05287;stroke-linecap:butt;stroke-linejoin:miter;stroke-miterlimit:4;stroke-dasharray:none;stroke-opacity:1"
           id="path204-5-8" />
        <path
           d="m 4346.7922,4316.2632 13.6786,-0.1488 7.8726,-12.676 -21.5512,12.8248 -31.2935,36.8409 -21.2351,29.3103 -22.2548,35.7825 2.033,-32.518 -6.3005,-51.0701 -6.8445,-16.3281 -17.064,-56.663 -9.1515,-21.5033 1.8852,-14.122 -15.4834,-11.2671 -8.6815,12.2451 4.3869,17.7979 17.8928,-4.6539"
           style="fill:none;stroke:#570080;stroke-width:6.05287;stroke-linecap:butt;stroke-linejoin:miter;stroke-miterlimit:4;stroke-dasharray:none;stroke-opacity:1"
           id="path310-1-4" />
        <path
           d="m 4482.71,4693.2031 37.9256,46.1223 37.0704,-44.113 43.4203,12.093 43.5284,-42.6801"
           style="fill:none;stroke:#570080;stroke-width:6.05287;stroke-linecap:butt;stroke-linejoin:miter;stroke-miterlimit:4;stroke-dasharray:none;stroke-opacity:1"
           id="path166-5-1" />
        <path
           d="m 3595.8097,4566.0258 -33.1162,26.1403 3.9366,13.5705 27.8819,-31.2999 m 57.8542,8.4355 -19.4613,-9.8963 -37.7271,-2.7157 m 12.6643,100.5746 11.0919,11.5619 19.9525,3.085 7.0673,7.0945 11.7943,2.5517 7.3922,-58.1513 -7.3922,58.1513 8.8245,-0.9897 21.4393,-1.7651 6.1352,-6.4894 m -41.7804,-103.011 12.7739,54.1042 -26.0388,-15.8129 h -0.018 l 13.2772,-38.2955 m -2e-4,1e-4 77.8991,24.1595 74.2902,-10.3093 -74.2902,10.3093 -6.6818,9.4442 -7.8359,8.3466 -50.6055,12.1559 50.6055,-12.1559 15.8042,16.6943 44.5762,29.42"
           style="fill:none;stroke:#570080;stroke-width:6.05287;stroke-linecap:butt;stroke-linejoin:miter;stroke-miterlimit:4;stroke-dasharray:none;stroke-opacity:1"
           id="path284-0-0" />
      </g>
      <path
         d="m 5743.8989,7454.661 35.9713,-5.8071 81.6794,20.0299 m -171.7624,-21.7181 -40.4748,11.3669 -7.2416,10.0672 2.0223,19.1975 17.1157,-6.2771 m -1.0673,-185.8866 -22.5129,-1.1695 -3.1351,42.724 11.7312,41.9937 43.5625,67.9839 32.0635,13.0377 31.9884,28.4134 19.9686,19.0281 -6.6453,-26.998 -13.3233,7.9699 13.3233,-7.9699 -23.2635,-25.9859 -22.0482,5.5424 22.0482,-5.5424 -4.7696,-43.2494 0.017,-36.4794 -92.9211,4.2496 92.9211,-4.2496 4.8079,-20.1652"
         style="fill:none;stroke:#570080;stroke-width:6.05287;stroke-linecap:round;stroke-linejoin:round;stroke-miterlimit:4;stroke-dasharray:none;stroke-opacity:1"
         id="path302-3-2-5" />
      <path
         d="m 4856.4602,7371.0629 19.8616,-39.177 35.3305,-22.5022 m -87.9905,206.4472 -6.4701,38.3 22.2852,-5.6847 -2.2338,-21.8258 50.5332,-35.7958 m -25.7118,-19.395 -35.9915,-80.0884 -6.658,-70.9118 37.0452,50.6335 -30.3872,20.2783 30.3872,-20.2783 31.3161,119.7617 m 40.0948,-5.5331 -40.0948,5.5331 -25.7118,-19.395 -23.5605,8.9774 -14.8422,35.4239 13.5813,10.7895"
         style="fill:none;stroke:#570080;stroke-width:6.05287;stroke-linecap:round;stroke-linejoin:round;stroke-miterlimit:4;stroke-dasharray:none;stroke-opacity:1"
         id="path244-7-6" />
      <path
         d="m 6280.1483,7411.5202 50.1587,-15.3051 -16.0132,-17.0342 16.0132,17.0342 35.3255,-11.7762 -51.3387,-5.258 -49.9994,10.0275 49.9994,-10.0275 4.8127,-41.8763 25.655,-28.6358 4.3789,5.3906 m -116.1024,116.4754 47.1103,-19.0146 -15.8539,-22.3118 -37.3344,18.7448 6.078,22.5816 -15.5121,22.1083 -9.675,19.0111 -28.8249,15.7022 m 47.934,-79.4032 -22.6882,-24.6144 10.4677,-41.3182 34.9876,-47.6496 9.8659,5.6602 -9.8659,-5.6602 -34.9876,47.6496 -10.4677,41.3182 -53.7578,-87.6497 -8.7189,-8.3118"
         style="fill:none;stroke:#570080;stroke-width:6.05287;stroke-linecap:round;stroke-linejoin:round;stroke-miterlimit:4;stroke-dasharray:none;stroke-opacity:1"
         id="path358-6-7-7" />
      <path
         d="m 4569.9477,7506.7047 -59.572,19.0656 5.979,30.6629 32.813,-0.016 20.78,-49.7128 0.4111,-36.6059 -32.3925,-13.8503 -38.044,-0.6524 38.044,0.6524 32.3925,13.8503 9.832,-51.226 18.3077,-40.4472 -18.3077,40.4472 -9.832,51.226 -31.2948,-69.1927 -25.5138,-21.5858 -30.383,-33.2984 30.383,33.2984 25.5138,21.5858 -9.8061,-56.6082 -23.8723,-18.9255"
         style="fill:none;stroke:#570080;stroke-width:6.05288;stroke-linecap:round;stroke-linejoin:round;stroke-miterlimit:4;stroke-dasharray:none;stroke-opacity:1"
         id="path362-2-7" />
      <path
         d="m 5142.5758,7474.9783 21.4972,47.215 -8.678,34.0478 10.4755,-0.034 -1.7975,-34.014 m -22.1787,-189.08 -63.6127,-26.2128 m 63.6127,26.2128 40.8376,-15.1909 14.7794,-10.6949 m -55.617,25.8858 -33.625,72.2447 -27.5717,53.4859 29.2427,35.8387 32.6355,-19.7043 -8.8218,-52.3561 8.1403,-89.5089"
         style="fill:none;stroke:#570080;stroke-width:6.05287;stroke-linecap:round;stroke-linejoin:round;stroke-miterlimit:4;stroke-dasharray:none;stroke-opacity:1"
         id="path148-4-0-6" />
      <path
         d="m 4759.3882,7327.3138 -113.1895,-7.1201 46.4302,100.6391 -3.7151,51.9779 30.6745,-7.9037 36.0475,-55.2615 -36.0475,55.2615 -30.6745,7.9037 -33.9044,48.7619 82.8019,-8.2567 -49.9137,44.9447 -32.8882,-36.688 -8.8107,-201.3789"
         style="fill:none;stroke:#570080;stroke-width:6.05287;stroke-linecap:round;stroke-linejoin:round;stroke-miterlimit:4;stroke-dasharray:none;stroke-opacity:1"
         id="path258-1-6-2" />
      <path
         d="m 5260.5725,7478.5179 12.3563,35.2703 16.8465,15.38 m -69.5436,-204.097 19.7021,-12.5545 12.1128,-6.9918 m 79.5473,119.6701 20.3661,63.1713 -80.4837,-27.8574 -10.9038,18.009 10.9038,-18.009 7.1741,-67.0885 25.148,0.4101 -25.148,-0.4101 -1.9239,-44.2376 -10.5078,-20.3605 -14.1721,-23.2974 14.1721,23.2974 10.5078,20.3605 38.129,7.3831 9.1664,-3.9244 34.1875,-10.4979 -29.3113,-40.4747 29.3113,40.4747 -34.1875,10.4979 -9.1664,3.9244 -11.0571,37.2646 27.7955,31.3645 18.0748,-13.655 16.0151,-15.7146 9.8851,-13.2104 11.9694,-2.2457"
         style="fill:none;stroke:#570080;stroke-width:6.05287;stroke-linecap:round;stroke-linejoin:round;stroke-miterlimit:4;stroke-dasharray:none;stroke-opacity:1"
         id="path222-3-0-9" />
      <path
         d="m 6097.5273,7489.4857 -12.2796,-0.013 7.6503,12.9237 7.008,8.5688 -2.3787,-21.4824 17.2121,-23.7487 -11.3863,-23.4772 -9.0895,-10.9387 -1.2065,-46.8 -37.0108,3.8992 -6.7948,-4.5588 -18.6915,-17.6314 -17.0037,-8.3487 -55.5275,-9.5864 -31.5965,18.7922 -9.3736,38.0213 -7.094,39.4864 -16.5928,42.3982 m 120.1844,-129.1117 -4.7357,-38.64 1.279,-13.9935 -0.024,-12.036 -12.9904,-21.2556 m -39.0567,76.3387 -42.8068,-40.5546 -25.1467,-21.5342 m 88.7077,199.8277 35.1386,-22.0558 25.33,-40.8254 16.7947,-34.7324 -6.7948,-4.5588 -18.6916,-17.6314 -17.0036,-8.3487 17.0036,8.3487 18.6916,17.6314 6.7948,4.5588 -16.7947,34.7324 -25.33,40.8254 -0.3653,-106.0967 -55.5275,-9.5864 2.1226,108.6309 -7.3223,-5.7885 -35.7704,-46.0289 35.7704,46.0289 7.3223,5.7885 18.6316,29.108"
         style="fill:none;stroke:#570080;stroke-width:6.05286;stroke-linecap:round;stroke-linejoin:round;stroke-miterlimit:4;stroke-dasharray:none;stroke-opacity:1"
         id="path324-0-5-4" />
      <path
         d="m 4287.2089,7324.9527 4.1271,35.8546 -8.5413,66.6041 23.1988,65.4836 25.6824,14.6172 21.1622,-11.619 32.9259,-17.9048 36.2241,-31.0451 -0.8621,-7.5354 0.8621,7.5354 28.2887,13.0743 9.8276,-19.4261 -9.8276,19.4261 -35.1103,67.3043 -15.8553,10.6446 -0.9092,16.2988 22.9729,2.2981 -6.2084,-29.2415 35.1103,-67.3043"
         style="fill:none;stroke:#570080;stroke-width:6.05287;stroke-linecap:round;stroke-linejoin:round;stroke-miterlimit:4;stroke-dasharray:none;stroke-opacity:1"
         id="path204-5-8-3" />
      <path
         d="m 5417.754,7440.1353 -13.7574,5.413 -3.074,15.8315 16.8314,-21.2445 17.4311,-49.2486 10.1698,-37.773 8.7097,-44.7021 10.4574,33.6248 26.0114,49.1558 13.1945,13.8579 39.0337,50.6633 17.5154,18.197 3.5293,14.9883 19.9722,5.4224 4.0568,-15.7074 -11.278,-16.2877 -16.2803,11.5844"
         style="fill:none;stroke:#570080;stroke-width:6.05287;stroke-linecap:round;stroke-linejoin:round;stroke-miterlimit:4;stroke-dasharray:none;stroke-opacity:1"
         id="path310-1-4-2" />
      <path
         d="m 5053.4245,7303.5856 -85.7499,25.5374 39.5176,75.9139 -41.8802,52.4933 33.7943,83.9303"
         style="fill:none;stroke:#570080;stroke-width:6.05287;stroke-linecap:round;stroke-linejoin:round;stroke-miterlimit:4;stroke-dasharray:none;stroke-opacity:1"
         id="path166-5-1-0" />
      <path
         d="m 6433.6055,7494.8627 39.561,26.4738 13.2147,-8.9177 -43.2899,-19.0744 m -10.9891,-64.97 -3.8869,24.2973 10.1583,41.4036 m 103.6607,-48.383 8.577,-15.8972 -3.601,-22.4673 5.1723,-10.0348 -1.3464,-13.5328 -65.0355,12.1926 65.0355,-12.1926 -4.1217,-9.1222 -9.3269,-22.3839 -9.0981,-4.3348 m -96.187,80.4543 53.6984,-32.4213 -7.9635,33.3993 0.011,0.02 -45.7436,-0.9897 m 1e-4,2e-4 -1.0437,-91.9097 -36.8236,-76.1124 36.8236,76.1124 12.4619,3.8988 11.683,5.5163 30.5986,50.0705 -30.5986,-50.0705 12.4575,-22.7272 16.1571,-57.9895"
         style="fill:none;stroke:#570080;stroke-width:6.05287;stroke-linecap:round;stroke-linejoin:round;stroke-miterlimit:4;stroke-dasharray:none;stroke-opacity:1"
         id="path284-0-0-0" />
      <path
         id="path11831-5"
         style="fill:none;fill-rule:evenodd;stroke:#ffffff;stroke-width:6.05287;stroke-linecap:round;stroke-linejoin:round;stroke-dasharray:none"
         d="m -311.1115,1878.1229 c 63.3437,42.0455 117.7712,96.4715 159.8168,159.8152 M -311.0986,1878.118 c -24.3229,-3.4525 -45.6371,-16.2992 -60.1446,-34.7467 m -218.3409,-58.5095 c 78.0837,4.7212 151.9239,25.2639 218.3538,58.4595 m -218.3376,-58.4288 c -10.737,4.3177 -22.4619,6.6936 -34.7371,6.6936 -12.2752,0 -23.9984,-2.3759 -34.737,-6.6936 m -218.3312,58.4255 c 66.425,-33.1923 140.2604,-53.7334 218.3376,-58.4562 m -218.3312,58.5095 c -14.5075,18.4475 -35.8217,31.2942 -60.143,34.7467 m -159.8104,159.8266 c 42.0457,-63.3454 96.4732,-117.7712 159.8169,-159.8186 m -159.8217,159.8057 c -3.451,24.3228 -16.2992,45.6369 -34.7467,60.1444 m -58.5095,218.3394 c 4.7228,-78.0837 25.2639,-151.9223 58.4594,-218.3538 m -58.4272,218.3392 c 4.3161,10.737 6.6921,22.4618 6.6921,34.737 0,12.2753 -2.376,23.9986 -6.6921,34.7371 m 58.424,218.3312 c -33.1923,-66.4267 -53.7318,-140.2604 -58.4562,-218.3393 m 58.5111,218.3328 c 18.4475,14.5076 31.2941,35.8201 34.7451,60.143 m 159.8282,159.8089 c -63.3454,-42.0457 -117.7728,-96.4715 -159.8185,-159.8154 m 159.8055,159.8219 c 24.3229,3.4508 45.6355,16.2991 60.143,34.7467 m 218.3409,58.5089 c -78.0837,-4.7224 -151.9239,-25.2634 -218.3538,-58.459 m 218.3377,58.4273 c 10.7386,-4.3169 22.4618,-6.6929 34.737,-6.6929 12.2752,0 24.0001,2.376 34.7371,6.6929 m 218.3328,-58.4256 c -66.4267,33.1939 -140.2621,53.7336 -218.3393,58.4567 m 218.3328,-58.51 c 14.5075,-18.4476 35.8201,-31.2942 60.1414,-34.7451 m 159.8104,-159.8282 c -42.0457,63.3453 -96.4715,117.7712 -159.8153,159.8185 m 159.8201,-159.8056 c 3.451,-24.3229 16.2992,-45.6354 34.7468,-60.1446 m 58.5095,-218.3393 c -4.7213,78.0837 -25.2639,151.924 -58.4595,218.3538 m 58.4272,-218.3392 c -4.3161,-10.737 -6.6921,-22.4602 -6.6921,-34.7355 0,-12.2752 2.376,-24 6.6921,-34.737 m -58.424,-218.3327 c 33.1924,66.4265 53.7334,140.2603 58.4563,218.3392 m -58.5112,-218.3329 c -18.4459,-14.5074 -31.2941,-35.82 -34.7451,-60.1428 m -6.7259,313.2062 c 0,257.3795 -208.9146,466.2925 -466.2941,466.2925 -257.3795,0 -466.2924,-208.913 -466.2924,-466.2925 0,-257.3811 208.9129,-466.2939 466.2924,-466.2939 257.3795,0 466.2941,208.9129 466.2941,466.2939 z m 0,0 c 0,257.3795 -208.9146,466.2925 -466.2941,466.2925 -257.3795,0 -466.2924,-208.913 -466.2924,-466.2925 0,-257.3811 208.9129,-466.2939 466.2924,-466.2939 257.3795,0 466.2941,208.9129 466.2941,466.2939 z m -1046.2837,-58.2156 c 6.3628,-64.0749 23.1187,-125.1073 48.5553,-181.3894 m -48.5247,181.3991 c 12.7692,15.957 20.4071,36.1946 20.4071,58.2059 0,22.0099 -7.6379,42.2475 -20.4071,58.2045 m 48.5183,181.3845 c -25.4334,-56.2772 -42.1861,-117.3064 -48.5489,-181.3747 m 48.6376,181.3311 c 34.6806,13.5971 59.2601,47.377 59.2601,86.8595 0,4.7535 -0.3551,9.4247 -1.0427,13.9878 m 132.7726,132.7177 c -51.062,-36.8127 -95.934,-81.6846 -132.7468,-132.7467 m 132.7161,132.771 c 4.5631,-0.6876 9.2343,-1.0444 13.9878,-1.0444 39.4825,0 73.2608,24.5812 86.8596,59.2617 m 181.3296,48.638 c -64.0733,-6.3641 -125.1073,-23.1197 -181.3877,-48.5557 m 181.3974,48.5252 c 15.9586,-12.7695 36.1961,-20.4083 58.206,-20.4083 22.0099,0 42.2491,7.6388 58.2061,20.4083 m 181.3844,-48.5203 c -56.2772,25.4338 -117.3063,42.1874 -181.3748,48.551 m 181.3296,-48.6382 c 13.5988,-34.6805 47.3787,-59.2601 86.8596,-59.2601 4.7535,0 9.4247,0.3552 13.9878,1.0428 M -151.1946,2691.5 c -36.8128,51.0621 -81.6847,95.934 -132.7468,132.7467 m 132.7726,-132.7161 c -0.6876,-4.5631 -1.0443,-9.2343 -1.0443,-13.9878 0,-39.4825 24.5795,-73.2624 59.2617,-86.8595 m 48.6377,-181.3296 c -6.3644,64.0733 -23.1204,125.1056 -48.557,181.3877 m 48.5263,-181.399 c -12.7691,-15.957 -20.4087,-36.1946 -20.4087,-58.2045 0,-22.0113 7.6396,-42.2489 20.4087,-58.2059 m -48.5198,-181.3845 c 25.4333,56.2772 42.1861,117.3062 48.5505,181.3748 m -48.6377,-181.3312 c -34.6822,-13.5973 -59.2617,-47.3772 -59.2617,-86.8579 0,-4.7552 0.3567,-9.4248 1.0443,-13.9878 M -283.943,1878.026 c 51.0621,36.8144 95.934,81.6864 132.7484,132.7467 m -132.7177,-132.7709 c -4.5631,0.6876 -9.2343,1.0443 -13.9878,1.0443 -39.4809,0 -73.2608,-24.5811 -86.8596,-59.2616 m -181.3296,-48.6377 c 64.0734,6.3644 125.1073,23.1203 181.3877,48.5569 m -181.3973,-48.5262 c -15.957,12.7691 -36.1962,20.4086 -58.2061,20.4086 -22.0099,0 -42.2474,-7.6395 -58.2044,-20.4086 m -181.3861,48.5198 c 56.2788,-25.4334 117.3063,-42.1877 181.3764,-48.5506 m -181.3312,48.6378 c -13.5972,34.6805 -47.3771,59.2616 -86.8596,59.2616 -4.7535,0 -9.4247,-0.3567 -13.9878,-1.0443 m -132.7177,132.7726 c 36.8128,-51.0604 81.6848,-95.934 132.7468,-132.7468 m -132.771,132.7178 c 0.6876,4.563 1.0427,9.2326 1.0427,13.9861 0,39.4825 -24.5795,73.2624 -59.2601,86.8596 m 514.5395,652.0639 16.8125,6.1191 m 0,23.0009 -16.8125,-29.12 m 33.625,0 -16.8125,6.1191 m 0,23.0009 16.8125,-29.12 m 431.9944,-412.5171 c 0,247.7272 -201.0781,448.8069 -448.8069,448.8069 -247.7272,0 -448.8069,-201.0797 -448.8069,-448.8069 0,-247.7287 201.0797,-448.8068 448.8069,-448.8068 247.7288,0 448.8069,201.0781 448.8069,448.8068 z m -43.458,0 c 0,223.7401 -181.6088,405.3489 -405.3489,405.3489 -223.74,0 -405.3489,-181.6088 -405.3489,-405.3489 0,-223.7415 181.6089,-405.3487 405.3489,-405.3487 223.7401,0 405.3489,181.6072 405.3489,405.3487 z"
         inkscape:export-filename="alethiometer.svg"
         inkscape:export-xdpi="200.14"
         inkscape:export-ydpi="200.14" />
    </g>
  </g>
</svg>
