<?xml version="1.0" encoding="UTF-8" standalone="no"?>
<svg
   sodipodi:docname="Constellations.svg"
   inkscape:version="1.2.2 (732a01da63, 2022-12-09)"
   id="svg8"
   version="1.1"
   viewBox="0 0 35.839378 58.353592"
   height="58.353592mm"
   width="35.839378mm"
   xmlns:inkscape="http://www.inkscape.org/namespaces/inkscape"
   xmlns:sodipodi="http://sodipodi.sourceforge.net/DTD/sodipodi-0.dtd"
   xmlns="http://www.w3.org/2000/svg"
   xmlns:svg="http://www.w3.org/2000/svg"
   xmlns:rdf="http://www.w3.org/1999/02/22-rdf-syntax-ns#"
   xmlns:cc="http://creativecommons.org/ns#"
   xmlns:dc="http://purl.org/dc/elements/1.1/">
  <defs
     id="defs2" />
  <sodipodi:namedview
     inkscape:snap-object-midpoints="true"
     inkscape:snap-nodes="true"
     inkscape:bbox-nodes="true"
     inkscape:snap-bbox-midpoints="true"
     inkscape:snap-bbox="false"
     inkscape:window-maximized="1"
     inkscape:window-y="-8"
     inkscape:window-x="-8"
     inkscape:window-height="1017"
     inkscape:window-width="1920"
     inkscape:snap-global="true"
     showgrid="false"
     inkscape:document-rotation="0"
     inkscape:current-layer="g10"
     inkscape:document-units="mm"
     inkscape:cy="-6363.5714"
     inkscape:cx="4310.3571"
     inkscape:zoom="1.4"
     inkscape:pageshadow="2"
     inkscape:pageopacity="0.0"
     borderopacity="1.0"
     bordercolor="#666666"
     pagecolor="#ffffff"
     id="base"
     inkscape:showpageshadow="2"
     inkscape:pagecheckerboard="0"
     inkscape:deskcolor="#d1d1d1" />
  <metadata
     id="metadata5">
    <rdf:RDF>
      <cc:Work
         rdf:about="">
        <dc:format>image/svg+xml</dc:format>
        <dc:type
           rdf:resource="http://purl.org/dc/dcmitype/StillImage" />
        <dc:title />
      </cc:Work>
    </rdf:RDF>
  </metadata>
  <g
     id="layer1"
     inkscape:groupmode="layer"
     inkscape:label="Layer 1"
     transform="translate(-1300.4823,1679.482)">
    <g
       transform="matrix(0.21856008,0,0,-0.21856008,-96.385369,-34.956635)"
       id="g10">
      <path
         d="m 6433.6055,7494.8627 39.561,26.4738 13.2147,-8.9177 -43.2899,-19.0744 m -10.9891,-64.97 -3.8869,24.2973 10.1583,41.4036 m 103.6607,-48.383 8.577,-15.8972 -3.601,-22.4673 5.1723,-10.0348 -1.3464,-13.5328 -65.0355,12.1926 65.0355,-12.1926 -4.1217,-9.1222 -9.3269,-22.3839 -9.0981,-4.3348 m -96.187,80.4543 53.6984,-32.4213 -7.9635,33.3993 0.011,0.02 -45.7436,-0.9897 m 1e-4,2e-4 -1.0437,-91.9097 -36.8236,-76.1124 36.8236,76.1124 12.4619,3.8988 11.683,5.5163 30.5986,50.0705 -30.5986,-50.0705 12.4575,-22.7272 16.1571,-57.9895"
         style="fill:none;stroke:#ffffff;stroke-width:6.05287;stroke-linecap:round;stroke-linejoin:round;stroke-miterlimit:4;stroke-dasharray:none;stroke-opacity:1"
         id="path284-0-0-0" />
    </g>
  </g>
</svg>
